Coordinates
version=1
nRows=29
nColumns=24
inDegrees=yes

Units are S.I. units (second, meters, Newtons, ...)
Angles are in degrees.

endheader
time	pelvis_tilt	pelvis_list	pelvis_rotation	pelvis_tx	pelvis_ty	pelvis_tz	hip_flexion_r	hip_adduction_r	hip_rotation_r	knee_angle_r	ankle_angle_r	subtalar_angle_r	mtp_angle_r	hip_flexion_l	hip_adduction_l	hip_rotation_l	knee_angle_l	ankle_angle_l	subtalar_angle_l	mtp_angle_l	lumbar_extension	lumbar_bending	lumbar_rotation
      5.66000000	     16.11200655	     -1.62576714	      2.89240961	      0.63549447	      0.82546682	     -0.13229538	     -9.35963019	      6.50883963	      7.91386178	    -19.41047526	     19.86588364	      1.65745987	      0.00000000	      1.19907205	     -0.69927410	     -4.99120644	    -65.67122905	      9.88093963	    -17.94014610	      0.00000000	    -30.72357418	      1.38853237	     -4.37468279
      5.67000000	     15.71818077	     -1.47926419	      2.14887662	      0.64580331	      0.82645646	     -0.13174804	    -10.33810613	      6.07940168	      8.39329433	    -18.22313778	     20.07048162	      2.11797321	      0.00000000	      3.23611833	     -0.42914843	     -5.67642549	    -64.64686741	     10.77207796	    -17.17333092	      0.00000000	    -30.56295032	      0.83411527	     -3.25545026
      5.68000000	     15.33749891	     -1.37204098	      1.36585764	      0.65604775	      0.82720106	     -0.13120982	    -11.31836010	      5.66479713	      8.93954436	    -17.03207082	     20.24760219	      2.53290678	      0.00000000	      5.12641610	     -0.25205943	     -6.35997888	    -63.25110713	     11.38870195	    -16.67015841	      0.00000000	    -30.42607910	      0.32387290	     -2.10443645
      5.69000000	     14.98391093	     -1.28901566	      0.53599842	      0.66623008	      0.82772227	     -0.13065808	    -12.31997884	      5.24612477	      9.56589517	    -15.83205109	     20.41485288	      2.90910596	      0.00000000	      6.83321703	     -0.15407796	     -7.04026748	    -61.46941609	     11.72539262	    -16.43908816	      0.00000000	    -30.32803292	     -0.15447893	     -0.94980420
      5.70000000	     14.66345533	     -1.22081504	     -0.31575316	      0.67636346	      0.82802632	     -0.13012861	    -13.35284853	      4.81323624	     10.24602744	    -14.62218873	     20.57600737	      3.24986766	      0.00000000	      8.33293448	     -0.11873006	     -7.69093090	    -59.29256907	     11.80409966	    -16.47412112	      0.00000000	    -30.28262957	     -0.61036601	      0.16912255
      5.71000000	     14.38398992	     -1.17159878	     -1.18758141	      0.68646160	      0.82812012	     -0.12960293	    -14.42845065	      4.36777276	     10.96685045	    -13.39789983	     20.72754691	      3.55953458	      0.00000000	      9.60452606	     -0.14931721	     -8.30784772	    -56.72433507	     11.63378173	    -16.73853902	      0.00000000	    -30.30187201	     -1.04104305	      1.25820132
      5.72000000	     14.16689947	     -1.13456126	     -2.08727355	      0.69651555	      0.82802934	     -0.12905216	    -15.56556658	      3.90003949	     11.72537247	    -12.16430056	     20.87892134	      3.83109021	      0.00000000	     10.60492209	     -0.22215981	     -8.87614218	    -53.74702890	     11.23932451	    -17.20589305	      0.00000000	    -30.40885154	     -1.47100528	      2.33066203
      5.73000000	     14.10523291	     -1.11233804	     -2.98665097	      0.70657763	      0.82785470	     -0.12860755	    -16.87748475	      3.39854768	     12.49294173	    -10.90645715	     20.98979342	      4.04712121	      0.00000000	     11.21668477	     -0.31150600	     -9.36571500	    -50.35734084	     10.63833854	    -17.79485198	      0.00000000	    -30.71920791	     -1.84565267	      3.37821392
      5.74000000	     13.98607090	     -1.08977454	     -3.83535152	      0.71676380	      0.82733657	     -0.12818025	    -18.13183728	      2.88451741	     13.21331074	     -9.64748568	     21.13143418	      4.25146616	      0.00000000	     11.68173197	     -0.41012125	     -9.74195620	    -46.59185049	      9.91303943	    -18.45364091	      0.00000000	    -30.93717414	     -2.22238663	      4.26404557
      5.75000000	     13.93819723	     -1.09246406	     -4.66275563	      0.72708019	      0.82659845	     -0.12780261	    -19.46799416	      2.36733372	     13.93813634	     -8.39129136	     21.26785355	      4.37792103	      0.00000000	     11.85239626	     -0.52447758	    -10.01386260	    -42.47005829	      9.05922819	    -19.10316296	      0.00000000	    -31.21537765	     -2.55712695	      5.08650450
      5.76000000	     13.93562054	     -1.12626091	     -5.42367781	      0.73759465	      0.82559198	     -0.12751437	    -20.87563962	      1.86456086	     14.66484071	     -7.11890176	     21.37281360	      4.42208709	      0.00000000	     11.78138128	     -0.65541527	    -10.14152850	    -38.06555647	      8.11774561	    -19.60318504	      0.00000000	    -31.50874149	     -2.83207277	      5.83830853
      5.77000000	     13.96472833	     -1.18205119	     -6.12065696	      0.74838626	      0.82425494	     -0.12730603	    -22.32732674	      1.37822073	     15.40287228	     -5.87428156	     21.48027528	      4.31110936	      0.00000000	     11.48656877	     -0.78744071	    -10.12062920	    -33.41627238	      7.26103335	    -19.85472826	      0.00000000	    -31.78416390	     -3.05991577	      6.45151438
      5.78000000	     13.64062447	     -1.41346683	     -6.81698122	      0.75929388	      0.82223307	     -0.12721765	    -23.32075389	      1.09192541	     16.14027059	     -4.83176879	     21.69714813	      4.33268252	      0.00000000	     11.47910897	     -1.15200014	     -9.99688415	    -28.73573982	      6.37275319	    -19.94265441	      0.00000000	    -31.64021308	     -3.01852952	      7.18898069
      5.79000000	     13.76466157	     -1.67101689	     -7.40163921	      0.77046497	      0.82032155	     -0.12724900	    -24.86610916	      0.78772972	     17.01707173	     -3.71703141	     21.70840126	      3.91728905	      0.00000000	     10.83565652	     -1.45768667	     -9.57404247	    -23.94507622	      5.61358126	    -19.64975003	      0.00000000	    -31.97620833	     -2.97268720	      7.81908624
      5.80000000	     13.58209194	     -2.03938826	     -8.00405769	      0.78188983	      0.81781477	     -0.12736989	    -26.00468303	      0.61251290	     17.83857287	     -2.82263934	     21.89608194	      3.69471617	      0.00000000	     10.46914447	     -1.94384862	     -9.05222331	    -19.28566589	      5.00348335	    -19.05696479	      0.00000000	    -31.91010631	     -2.74554261	      8.50770413
      5.81000000	     13.38124298	     -2.55140494	     -8.54914699	      0.79340841	      0.81509138	     -0.12768933	    -27.08024889	      0.57891503	     18.63007001	     -2.08321268	     22.08017789	      3.62398423	      0.00000000	     10.09573196	     -2.59497775	     -8.24701516	    -14.84550491	      4.48184746	    -18.19284780	      0.00000000	    -31.85312478	     -2.29614780	      9.27866614
      5.82000000	     13.36363943	     -2.95697456	     -9.07229293	      0.80536330	      0.81232837	     -0.12803139	    -28.38469665	      0.38561676	     19.52198938	     -1.32343666	     22.20285708	      3.27179967	      0.00000000	      9.43713270	     -3.12544494	     -7.19433150	    -10.56077857	      4.02379231	    -17.23556324	      0.00000000	    -31.90157678	     -1.99861580	      9.89476080
      5.83000000	     13.16424097	     -3.56401533	     -9.50284606	      0.81735052	      0.80930424	     -0.12857566	    -29.40262948	      0.46329279	     20.10588595	     -0.83117680	     22.39553288	      3.35563976	      0.00000000	      9.02281537	     -3.93695582	     -5.93595799	     -6.75273007	      3.82205733	    -16.12542817	      0.00000000	    -31.80906434	     -1.37377803	     10.57636236
      5.84000000	     13.05924952	     -4.10785959	     -9.93735308	      0.82955580	      0.80636187	     -0.12905626	    -30.49405564	      0.44220071	     20.69244491	     -0.41617972	     22.57016238	      3.47621310	      0.00000000	      8.51381795	     -4.71470252	     -4.63373890	     -3.36430926	      3.66144049	    -15.09249632	      0.00000000	    -31.77900712	     -0.88755568	     11.21261791
      5.85000000	     13.14880134	     -4.48423348	    -10.36658943	      0.84198885	      0.80368068	     -0.12966830	    -31.76088622	      0.17686602	     21.25906041	     -0.03774446	     22.66660410	      3.64057276	      0.00000000	      7.83785869	     -5.28972368	     -3.35964694	     -0.46107785	      3.47734154	    -14.31824554	      0.00000000	    -31.95546032	     -0.59628968	     11.77798057
      5.86000000	     13.17551480	     -4.80625142	    -10.65791862	      0.85453222	      0.80107428	     -0.13048236	    -32.89161821	     -0.06212471	     21.50776508	      0.19748448	     22.73360153	      4.07370841	      0.00000000	      7.41321332	     -5.79441323	     -2.22111200	      1.69968627	      3.56645798	    -13.49864591	      0.00000000	    -32.05508651	     -0.30590031	     12.18334231
      5.87000000	     13.34287572	     -4.91173017	    -10.90090072	      0.86727543	      0.79881079	     -0.13146133	    -34.10012849	     -0.52312048	     21.50756538	      0.34356742	     22.75188836	      4.68563296	      0.00000000	      6.97741391	     -5.98553078	     -1.29505080	      3.18157680	      3.72033232	    -12.89201204	      0.00000000	    -32.27091641	     -0.26096739	     12.43756881
      5.88000000	     13.58425117	     -4.78419679	    -11.02836754	      0.88024489	      0.79684933	     -0.13270079	    -35.32231497	     -1.15661658	     21.22772584	      0.40816733	     22.64215259	      5.35656729	      0.00000000	      6.64295397	     -5.82405591	     -0.53231749	      3.93498394	      3.88913185	    -12.51311600	      0.00000000	    -32.51097684	     -0.42266968	     12.50634577
      5.89000000	     13.78673908	     -4.33405246	    -11.14595835	      0.89354042	      0.79510238	     -0.13421748	    -36.43629806	     -2.09290812	     20.84429748	      0.41806940	     22.45677567	      6.07811513	      0.00000000	      6.53503830	     -5.21595776	     -0.05092143	      3.95258158	      3.93426787	    -12.51200002	      0.00000000	    -32.60615534	     -0.87118083	     12.40810789
      5.90000000	     14.25755896	     -3.77362405	    -11.19390142	      0.90688234	      0.79389483	     -0.13595046	    -37.72326955	     -3.10344044	     20.11337775	      0.21306916	     22.18607614	      7.05093854	      0.00000000	      6.27198410	     -4.35303938	      0.37175475	      3.32814335	      3.82961876	    -12.88799270	      0.00000000	    -33.01672783	     -1.48698173	     12.18395614
      5.91000000	     14.60519286	     -2.96230422	    -11.17205916	      0.92057106	      0.79282632	     -0.13795607	    -38.81565215	     -4.23673395	     19.21702500	     -0.10601939	     21.72789774	      7.87593985	      0.00000000	      6.31364723	     -3.14591742	      0.57734652	      2.09256955	      3.39884408	    -13.58722886	      0.00000000	    -33.19260492	     -2.27206868	     11.85949183
      5.92000000	     14.91780084	     -1.99527406	    -11.10919702	      0.93452665	      0.79197238	     -0.14017347	    -39.77960914	     -5.41986403	     18.16411756	     -0.62866557	     21.14321864	      8.67844749	      0.00000000	      6.51106788	     -1.71494279	      0.66364446	      0.36982392	      2.66235793	    -14.53882188	      0.00000000	    -33.26653401	     -3.18464674	     11.48920039
      5.93000000	     15.15627238	     -0.94657729	    -11.00516793	      0.94872568	      0.79133446	     -0.14259028	    -40.54866357	     -6.56428678	     16.94481585	     -1.41698492	     20.40230456	      9.47241056	      0.00000000	      6.86347451	     -0.16517005	      0.61883941	     -1.69998448	      1.59097514	    -15.66695023	      0.00000000	    -33.21230649	     -4.13127605	     11.12470814
      5.94000000	     15.30237243	      0.12350689	    -10.83602964	      0.96308549	      0.79089453	     -0.14520763	    -41.07286498	     -7.59689755	     15.61906732	     -2.53425759	     19.52998611	     10.27599668	      0.00000000	      7.35694310	      1.41663159	      0.49744947	     -3.99630672	      0.29728515	    -16.83079981	      0.00000000	    -33.05349404	     -5.04039655	     10.72963388
